<svg id="Layer_1" data-name="Layer 1" xmlns="http://www.w3.org/2000/svg" viewBox="0 0 661.23 211.18"><defs><style>.cls-1{fill:#fff;}.cls-2{fill:#293f57;}.cls-3,.cls-4{fill:#feda46;}.cls-3{opacity:0.75;}</style></defs><title>pro_hori_coloured_white(border)</title><path class="cls-1" d="M228.76,80.73h8l13,20.21,13-20.21h8v42.75h-7.51V92.82L249.77,113h-.24l-13.37-20v30.53h-7.39Z"/><path class="cls-1" d="M279.33,111.75V91.23h7.39v18.32c0,5,2.5,7.88,6.9,7.88s7.27-3,7.27-8V91.23h7.39v32.24h-7.39v-5c-2.08,3.05-5.07,5.68-10.08,5.68C283.54,124.15,279.33,119.26,279.33,111.75Z"/><path class="cls-1" d="M316.77,78.9h7.39v44.58h-7.39Z"/><path class="cls-1" d="M334.11,114.56v-17H330V91.23h4.09V82.38h7.39v8.86h8.67v6.35H341.5V113.4c0,2.87,1.47,4,4,4a9.94,9.94,0,0,0,4.58-1.1v6a12.94,12.94,0,0,1-6.66,1.65C338,124,334.11,121.64,334.11,114.56Z"/><path class="cls-1" d="M356.52,79.26h7.94v7h-7.94Zm.31,12h7.39v32.24h-7.39Z"/><path class="cls-1" d="M390.6,80.73h19.05c5.37,0,9.59,1.59,12.34,4.27a12.92,12.92,0,0,1,3.54,9.22v.12c0,7-4.21,11.24-10.2,12.95l11.54,16.18H418l-10.5-14.9h-9.4v14.9H390.6Zm18.5,21.19c5.37,0,8.79-2.81,8.79-7.14v-.12c0-4.58-3.3-7.08-8.85-7.08H398.11v14.35Z"/><path class="cls-1" d="M452.4,123.48v-4A13,13,0,0,1,442,124.15c-6.11,0-11.48-3.48-11.48-10v-.12c0-7.14,5.56-10.56,13.07-10.56a27.14,27.14,0,0,1,8.92,1.34v-.61c0-4.46-2.81-6.9-7.94-6.9a22.46,22.46,0,0,0-9.22,2l-2-5.92a27.65,27.65,0,0,1,12.27-2.69c9.53,0,14.17,5,14.17,13.62v19.11Zm.18-13.5a21.09,21.09,0,0,0-7.39-1.28c-4.64,0-7.39,1.89-7.39,5v.12c0,3.05,2.75,4.76,6.23,4.76,4.89,0,8.55-2.75,8.55-6.78Z"/><path class="cls-1" d="M468.53,114.56v-17h-4.09V91.23h4.09V82.38h7.39v8.86h8.67v6.35h-8.67V113.4c0,2.87,1.47,4,4,4a9.94,9.94,0,0,0,4.58-1.1v6a12.94,12.94,0,0,1-6.66,1.65C472.37,124,468.53,121.64,468.53,114.56Z"/><path class="cls-1" d="M490.94,79.26h7.94v7h-7.94Zm.31,12h7.39v32.24h-7.39Z"/><path class="cls-1" d="M507.06,91.23h7.39v5c2.08-3.05,5.07-5.68,10.08-5.68,7.27,0,11.48,4.88,11.48,12.4v20.52h-7.39V105.16c0-5-2.5-7.88-6.9-7.88s-7.27,3-7.27,8v18.2h-7.39Z"/><path class="cls-1" d="M543.65,129.52l2.75-5.56a21,21,0,0,0,11.48,3.42c6.6,0,10.2-3.42,10.2-9.89V115c-2.69,3.48-6,5.92-11.36,5.92-7.57,0-14.66-5.62-14.66-15.08v-.12c0-9.53,7.14-15.14,14.66-15.14a13.91,13.91,0,0,1,11.3,5.5V91.23h7.39v25.65c0,5.43-1.4,9.46-4.09,12.15-2.93,2.93-7.45,4.34-13.25,4.34A27.78,27.78,0,0,1,543.65,129.52Zm24.49-23.69v-.12c0-5.31-4.34-8.92-9.47-8.92s-9.16,3.54-9.16,8.85v.12a8.79,8.79,0,0,0,9.16,8.92C563.8,114.68,568.13,111,568.13,105.83Z"/><path class="cls-1" d="M587.42,76.12h8.4c5,0,8.09,2.83,8.09,7.12v.06c0,4.78-3.83,7.27-8.52,7.27h-4.23v6.85h-3.74Zm8.09,11.08c2.83,0,4.59-1.58,4.59-3.8v-.06c0-2.5-1.79-3.8-4.59-3.8h-4.35V87.2Z"/><path class="cls-1" d="M606.71,81.36h3.68V85c1-2.4,2.86-4,5.69-3.92v3.89h-.21c-3.23,0-5.48,2.1-5.48,6.36v6.12h-3.68Z"/><path class="cls-1" d="M617.23,89.48v-.06a8.57,8.57,0,0,1,17.13-.06v.06a8.4,8.4,0,0,1-8.61,8.37A8.31,8.31,0,0,1,617.23,89.48Zm13.45,0v-.06a5,5,0,0,0-4.93-5.17,4.82,4.82,0,0,0-4.84,5.11v.06a5,5,0,0,0,4.9,5.17A4.85,4.85,0,0,0,630.68,89.48Z"/><circle id="_Path_" data-name="&lt;Path&gt;" class="cls-2" cx="111.85" cy="104.02" r="85.56" transform="translate(-28.72 44.27) rotate(-19.9)"/><path id="_Path_2" data-name="&lt;Path&gt;" class="cls-3" d="M150.68,154.88a3.72,3.72,0,0,0,1.34-3.35C144.17,89.11,109.31,49.07,107.83,47.4a3.71,3.71,0,0,0-6.19,1L87.11,82,53.34,91.09A3.71,3.71,0,0,0,51.41,97c28,34.89,93,57.55,95.72,58.5A3.72,3.72,0,0,0,150.68,154.88Z"/><path id="_Path_3" data-name="&lt;Path&gt;" class="cls-4" d="M168,87.51a3.84,3.84,0,0,0,.5-3.62,3.76,3.76,0,0,0-2.81-2.34C103.1,69.73,53.65,90.9,51.58,91.81a3.76,3.76,0,0,0-1,6.28l27.88,24.45-1.7,35.41a3.76,3.76,0,0,0,5.1,3.7C124.25,145.44,166.28,89.87,168,87.51Z"/><circle id="_Path_4" data-name="&lt;Path&gt;" class="cls-2" cx="111.85" cy="104.02" r="15.82" transform="translate(-28.72 44.27) rotate(-19.9)"/><g id="_Group_" data-name="&lt;Group&gt;"><rect id="_Rectangle_" data-name="&lt;Rectangle&gt;" class="cls-4" x="30.52" y="109.55" width="6.99" height="37.62" rx="1.46" ry="1.46" transform="translate(137.91 45.66) rotate(66.32)"/><rect id="_Rectangle_2" data-name="&lt;Rectangle&gt;" class="cls-4" x="39.8" y="130.71" width="6.99" height="37.62" rx="1.46" ry="1.46" transform="translate(162.84 49.82) rotate(66.32)"/><rect id="_Rectangle_3" data-name="&lt;Rectangle&gt;" class="cls-4" x="35.16" y="112.88" width="6.99" height="52.12" rx="1.46" ry="1.46" transform="translate(150.37 47.74) rotate(66.32)"/></g></svg>