<?xml version="1.0" encoding="UTF-8" standalone="no"?>
<svg
   xmlns:dc="http://purl.org/dc/elements/1.1/"
   xmlns:cc="http://creativecommons.org/ns#"
   xmlns:rdf="http://www.w3.org/1999/02/22-rdf-syntax-ns#"
   xmlns:svg="http://www.w3.org/2000/svg"
   xmlns="http://www.w3.org/2000/svg"
   xmlns:sodipodi="http://sodipodi.sourceforge.net/DTD/sodipodi-0.dtd"
   xmlns:inkscape="http://www.inkscape.org/namespaces/inkscape"
   id="Layer_1"
   data-name="Layer 1"
   viewBox="0 0 280.89 211.18"
   version="1.1"
   sodipodi:docname="vert_coloured(border) test.svg"
   inkscape:version="0.92.2 (5c3e80d, 2017-08-06)">
  <metadata
     id="metadata4295">
    <rdf:RDF>
      <cc:Work
         rdf:about="">
        <dc:format>image/svg+xml</dc:format>
        <dc:type
           rdf:resource="http://purl.org/dc/dcmitype/StillImage" />
        <dc:title>vert_coloured(border)</dc:title>
      </cc:Work>
    </rdf:RDF>
  </metadata>
  <sodipodi:namedview
     pagecolor="#ffffff"
     bordercolor="#666666"
     borderopacity="1"
     objecttolerance="10"
     gridtolerance="10"
     guidetolerance="10"
     inkscape:pageopacity="0"
     inkscape:pageshadow="2"
     inkscape:window-width="1920"
     inkscape:window-height="1001"
     id="namedview4293"
     showgrid="false"
     inkscape:zoom="3.82612"
     inkscape:cx="140.44501"
     inkscape:cy="105.59"
     inkscape:window-x="-9"
     inkscape:window-y="-9"
     inkscape:window-maximized="1"
     inkscape:current-layer="Layer_1" />
  <defs
     id="defs4258">
    <style
       id="style4256">.cls-1{fill:#293f57;}.cls-2{fill:#2a3f57;}.cls-3,.cls-4{fill:#feda46;}.cls-3{opacity:0.75;}</style>
  </defs>
  <title
     id="title4260">vert_coloured(border)</title>
  <circle
     id="_Path_"
     data-name="&lt;Path&gt;"
     class="cls-1"
     cx="140.3"
     cy="72.93"
     r="58.29"
     transform="translate(-16.44 52.1) rotate(-19.9)" />
  <path
     class="cls-2"
     d="M23,158.12H28.4l8.86,13.77,8.86-13.77h5.45v29.13H46.46V166.36l-9.2,13.73H37.1L28,166.44v20.81H23Z"
     id="path4263"
     style="fill:#ffffff" />
  <path
     class="cls-2"
     d="M57.4,179.26v-14h5v12.48c0,3.41,1.71,5.37,4.7,5.37s5-2,5-5.45v-12.4h5v22h-5v-3.41a7.91,7.91,0,0,1-6.87,3.87C60.27,187.7,57.4,184.37,57.4,179.26Z"
     id="path4265"
     style="fill:#ffffff" />
  <path
     class="cls-2"
     d="M82.91,156.87h5v30.38h-5Z"
     id="path4267"
     style="fill:#ffffff" />
  <path
     class="cls-2"
     d="M94.72,181.17V169.6H91.94v-4.33h2.79v-6h5v6h5.91v4.33H99.76v10.78c0,2,1,2.75,2.7,2.75a6.77,6.77,0,0,0,3.12-.75v4.12a8.82,8.82,0,0,1-4.54,1.12C97.35,187.62,94.72,186,94.72,181.17Z"
     id="path4269"
     style="fill:#ffffff" />
  <path
     class="cls-2"
     d="M110,157.12h5.41v4.79H110Zm.21,8.16h5v22h-5Z"
     id="path4271"
     style="fill:#ffffff" />
  <path
     class="cls-2"
     d="M133.21,158.12h13c3.66,0,6.53,1.08,8.41,2.91a8.8,8.8,0,0,1,2.41,6.28v.08c0,4.79-2.87,7.66-6.95,8.82l7.86,11h-6l-7.16-10.15h-6.41v10.15h-5.12Zm12.61,14.44c3.66,0,6-1.91,6-4.87v-.08c0-3.12-2.25-4.83-6-4.83h-7.45v9.78Z"
     id="path4273"
     style="fill:#ffffff" />
  <path
     class="cls-2"
     d="M175.32,187.25v-2.71a8.88,8.88,0,0,1-7.12,3.16c-4.16,0-7.82-2.37-7.82-6.78v-.08c0-4.87,3.79-7.2,8.9-7.2a18.49,18.49,0,0,1,6.08.92v-.42c0-3-1.91-4.7-5.41-4.7a15.3,15.3,0,0,0-6.28,1.37l-1.37-4a18.84,18.84,0,0,1,8.36-1.83c6.49,0,9.65,3.41,9.65,9.28v13Zm.13-9.2a14.39,14.39,0,0,0-5-.87c-3.16,0-5,1.29-5,3.41v.08c0,2.08,1.87,3.25,4.24,3.25,3.33,0,5.83-1.87,5.83-4.62Z"
     id="path4275"
     style="fill:#ffffff" />
  <path
     class="cls-2"
     d="M186.3,181.17V169.6h-2.79v-4.33h2.79v-6h5v6h5.91v4.33h-5.91v10.78c0,2,1,2.75,2.7,2.75a6.77,6.77,0,0,0,3.12-.75v4.12a8.82,8.82,0,0,1-4.54,1.12C188.93,187.62,186.3,186,186.3,181.17Z"
     id="path4277"
     style="fill:#ffffff" />
  <path
     class="cls-2"
     d="M201.57,157.12H207v4.79h-5.41Zm.21,8.16h5v22h-5Z"
     id="path4279"
     style="fill:#ffffff" />
  <path
     class="cls-2"
     d="M212.56,165.27h5v3.41a7.91,7.91,0,0,1,6.87-3.87c5,0,7.82,3.33,7.82,8.45v14h-5V174.76c0-3.41-1.71-5.37-4.7-5.37s-5,2-5,5.45v12.4h-5Z"
     id="path4281"
     style="fill:#ffffff" />
  <path
     class="cls-2"
     d="M237.48,191.36l1.87-3.79a14.3,14.3,0,0,0,7.82,2.33c4.49,0,6.95-2.33,6.95-6.74v-1.71a9.2,9.2,0,0,1-7.74,4,9.87,9.87,0,0,1-10-10.28v-.08a9.91,9.91,0,0,1,10-10.32,9.48,9.48,0,0,1,7.7,3.74v-3.29h5v17.48c0,3.7-1,6.45-2.79,8.28-2,2-5.08,3-9,3A18.93,18.93,0,0,1,237.48,191.36Zm16.69-16.14v-.08a6.14,6.14,0,0,0-6.45-6.08,5.94,5.94,0,0,0-6.24,6v.08a6,6,0,0,0,6.24,6.08A6.16,6.16,0,0,0,254.17,175.22Z"
     id="path4283"
     style="fill:#ffffff" />
  <path
     id="_Path_2"
     data-name="&lt;Path&gt;"
     class="cls-3"
     d="M166.76,107.59a2.53,2.53,0,0,0,.92-2.28c-5.35-42.53-29.1-69.81-30.11-70.95a2.53,2.53,0,0,0-4.22.67l-9.9,22.89-23,6.21a2.53,2.53,0,0,0-1.31,4c19.1,23.77,63.34,39.21,65.21,39.86A2.53,2.53,0,0,0,166.76,107.59Z" />
  <path
     id="_Path_3"
     data-name="&lt;Path&gt;"
     class="cls-4"
     d="M178.59,61.69a2.61,2.61,0,0,0,.34-2.47A2.56,2.56,0,0,0,177,57.63c-42.68-8.06-76.36,6.36-77.77,7a2.56,2.56,0,0,0-.66,4.28l19,16.66-1.16,24.12a2.56,2.56,0,0,0,3.48,2.52C148.75,101.16,177.39,63.3,178.59,61.69Z" />
  <circle
     id="_Path_4"
     data-name="&lt;Path&gt;"
     class="cls-1"
     cx="140.3"
     cy="72.93"
     r="10.77"
     transform="translate(-16.44 52.1) rotate(-19.9)" />
  <g
     id="_Group_"
     data-name="&lt;Group&gt;">
    <rect
       id="_Rectangle_"
       data-name="&lt;Rectangle&gt;"
       class="cls-4"
       x="85.86"
       y="76.45"
       width="4.76"
       height="25.63"
       rx="1.46"
       ry="1.46"
       transform="translate(134.56 -27.39) rotate(66.32)" />
    <rect
       id="_Rectangle_2"
       data-name="&lt;Rectangle&gt;"
       class="cls-4"
       x="92.18"
       y="90.87"
       width="4.76"
       height="25.63"
       rx="1.46"
       ry="1.46"
       transform="translate(151.54 -24.56) rotate(66.32)" />
    <rect
       id="_Rectangle_3"
       data-name="&lt;Rectangle&gt;"
       class="cls-4"
       x="89.02"
       y="78.72"
       width="4.76"
       height="35.51"
       rx="1.46"
       ry="1.46"
       transform="translate(143.05 -25.98) rotate(66.32)" />
  </g>
</svg>
